<svg xmlns="http://www.w3.org/2000/svg" width="32" height="34" viewBox="0 0 32 34" fill="none"><path d="M31.9999 7.19626C31.9999 6.76728 31.7408 6.38075 31.344 6.2177L16.4019 0.0793428C16.1443 -0.0264476 15.8555 -0.0264476 15.5979 0.0793428L0.655778 6.2177C0.258998 6.38068 -0.00012207 6.76728 -0.00012207 7.19626V26.6179C-0.00012207 27.0469 0.258932 27.4334 0.655778 27.5965L15.5979 33.7348C15.8527 33.8395 16.1391 33.8417 16.4006 33.7348C16.4133 33.7305 15.8476 33.9625 31.344 27.5965C31.7408 27.4335 31.9999 27.0469 31.9999 26.6179V7.19626ZM15.9999 12.2799L10.4943 10.0182L22.3925 4.82774L28.2663 7.24076L15.9999 12.2799ZM2.11569 8.86351L6.86574 10.8149V16.3202C6.86574 16.9044 7.33941 17.3781 7.92364 17.3781C8.50787 17.3781 8.98155 16.9044 8.98155 16.3202V11.6841L14.942 14.1327V31.1779L2.11569 25.9088V8.86351ZM15.9999 2.20156L19.6672 3.70815L7.76906 8.89856L3.73348 7.24069L15.9999 2.20156ZM17.0578 14.1327L29.8841 8.86351V25.9088L17.0578 31.1779V14.1327Z" fill="#E10914"/></svg>