<svg xmlns="http://www.w3.org/2000/svg" width="32" height="34" viewBox="0 0 32 34" fill="none"><path d="M31.9614 19.947C32.1218 20.5451 31.7661 21.1611 31.1681 21.3216L27.6526 22.263L30.1649 23.7138C30.7024 24.0235 30.8864 24.7102 30.5756 25.2466C30.3669 25.6056 29.991 25.8076 29.6028 25.8076C29.412 25.8076 29.219 25.7594 29.0429 25.6573L26.5305 24.2064L27.4731 27.7208C27.6347 28.3188 27.2778 28.9348 26.6798 29.0953C26.5822 29.1211 26.4845 29.1334 26.388 29.1334C25.8932 29.1334 25.4399 28.8036 25.3052 28.302L23.7826 22.6209L17.122 18.7745V26.4652L21.2815 30.6247C21.7202 31.0634 21.7202 31.7726 21.2815 32.2113C21.0627 32.4301 20.7754 32.54 20.4882 32.54C20.2009 32.54 19.9137 32.4301 19.6949 32.2113L17.122 29.6384V32.54C17.122 33.1605 16.6193 33.6621 15.9999 33.6621C15.3805 33.6621 14.8778 33.1605 14.8778 32.54V29.6384L12.3049 32.2113C11.8662 32.65 11.1571 32.65 10.7183 32.2113C10.2796 31.7726 10.2796 31.0634 10.7183 30.6247L14.8778 26.4652V18.7745L8.21723 22.6198L6.69458 28.3009C6.55993 28.8013 6.10774 29.1323 5.61178 29.1323C5.51641 29.1323 5.41879 29.12 5.32117 29.0942C4.72198 28.9337 4.36741 28.3188 4.52786 27.7196L5.46928 24.2053L2.95697 25.6561C2.77968 25.7594 2.58668 25.8076 2.39593 25.8076C2.00769 25.8076 1.63068 25.6068 1.4231 25.2466C1.1134 24.7091 1.29742 24.0235 1.83377 23.7138L4.34609 22.263L0.831765 21.3216C0.232579 21.1611 -0.121995 20.5462 0.0384606 19.947C0.200039 19.3501 0.812689 18.9944 1.413 19.1537L7.09404 20.6764L13.7547 16.8311L7.09404 12.9857L1.413 14.5084C1.31538 14.5342 1.21776 14.5476 1.12238 14.5476C0.626426 14.5476 0.173109 14.2166 0.0395828 13.7151C-0.120873 13.1159 0.233701 12.501 0.832887 12.3405L4.34721 11.3991L1.83377 9.94828C1.29742 9.63859 1.1134 8.953 1.4231 8.41553C1.73279 7.87806 2.41725 7.69404 2.95584 8.00485L5.46816 9.45569L4.52786 5.94136C4.36741 5.34218 4.72198 4.72728 5.32117 4.56683C5.9226 4.40301 6.53525 4.76207 6.69571 5.36013L8.21835 11.0412L14.8778 14.8876V7.19696L10.7183 3.03745C10.2796 2.59872 10.2796 1.88957 10.7183 1.45084C11.1571 1.01211 11.8662 1.01211 12.3049 1.45084L14.8778 4.02375V1.12207C14.8778 0.502688 15.3805 0 15.9999 0C16.6193 0 17.122 0.502688 17.122 1.12207V4.02375L19.6949 1.45084C20.1336 1.01211 20.8428 1.01211 21.2815 1.45084C21.7202 1.88957 21.7202 2.59872 21.2815 3.03745L17.122 7.19696V14.8876L23.7815 11.0423L25.3041 5.36125C25.4668 4.76207 26.0817 4.40637 26.6787 4.56795C27.2767 4.72841 27.6335 5.3433 27.472 5.94249L26.5294 9.45681L29.0417 8.00597C29.577 7.69404 30.2648 7.87806 30.5756 8.41553C30.8853 8.953 30.7013 9.63859 30.1649 9.94828L27.6526 11.3991L31.1681 12.3405C31.7661 12.501 32.1218 13.1159 31.9614 13.7151C31.8278 14.2166 31.3745 14.5465 30.8786 14.5476C30.7821 14.5476 30.6845 14.5353 30.5868 14.5084L24.9047 12.9857L18.2441 16.8311L24.9047 20.6764L30.5868 19.1537C31.186 18.9933 31.802 19.3479 31.9614 19.947Z" fill="#E10914"/></svg>