<svg xmlns="http://www.w3.org/2000/svg" width="20" height="15" viewBox="0 0 20 15" fill="none"><path d="M19.9249 7.07143C19.8248 6.96429 19.8248 6.85714 19.7247 6.75L13.7171 0.321429C13.3166 -0.107143 12.7159 -0.107143 12.3154 0.321429C11.9149 0.75 11.9149 1.39286 12.3154 1.82143L16.6208 6.42857H1.00125C0.400501 6.42857 0 6.85714 0 7.5C0 8.14286 0.400501 8.57143 1.00125 8.57143H16.6208L12.3154 13.1786C11.9149 13.6071 11.9149 14.25 12.3154 14.6786C12.5156 14.8929 12.816 15 13.0163 15C13.2165 15 13.5169 14.8929 13.7171 14.6786L19.7247 8.25C19.8248 8.14286 19.9249 8.03571 19.9249 7.92857C20.025 7.60714 20.025 7.39286 19.9249 7.07143Z" fill="black"/></svg>