<svg xmlns="http://www.w3.org/2000/svg" width="36" height="25" viewBox="0 0 36 25" fill="none"><path fill-rule="evenodd" clip-rule="evenodd" d="M14.4617 21.9375H23.2255C23.7093 23.5631 25.2168 24.75 26.9999 24.75C28.783 24.75 30.2905 23.5631 30.7742 21.9375H32.6249C34.4868 21.9375 35.9999 20.4266 35.9999 18.5625C35.9999 16.4031 35.9999 13.0534 35.9999 10.1649C35.9999 6.41476 32.9623 3.375 29.2105 3.375H26.9999V1.125C26.9999 0.503438 26.4993 0 25.8749 0H3.37488C2.7505 0 2.24988 0.503438 2.24988 1.125V2.25C2.24988 2.871 2.75613 3.375 3.37488 3.375C3.99363 3.375 4.49988 2.871 4.49988 2.25H24.7499V12.375C24.7499 12.996 25.2561 13.5 25.8749 13.5C26.4936 13.5 26.9999 12.996 26.9999 12.375V5.625H29.2105C31.7192 5.625 33.7499 7.65732 33.7499 10.1649V18.5625C33.7499 19.1841 33.2493 19.6875 32.6249 19.6875H30.7742C30.2905 18.0619 28.783 16.875 26.9999 16.875C25.2168 16.875 23.7093 18.0619 23.2255 19.6875H14.4617C13.978 18.0619 12.4705 16.875 10.6874 16.875C8.90425 16.875 7.39677 18.0619 6.91302 19.6875H4.49988V15.75C4.49988 15.129 3.99363 14.625 3.37488 14.625C2.75613 14.625 2.24988 15.129 2.24988 15.75V20.8125C2.24988 21.4341 2.7505 21.9375 3.37488 21.9375H6.91302C7.39677 23.5631 8.90425 24.75 10.6874 24.75C12.4705 24.75 13.978 23.5631 14.4617 21.9375ZM26.9999 19.125C27.9336 19.125 28.6874 19.881 28.6874 20.8125C28.6874 21.744 27.9336 22.5 26.9999 22.5C26.0661 22.5 25.3124 21.744 25.3124 20.8125C25.3124 19.881 26.0661 19.125 26.9999 19.125ZM10.6874 19.125C11.6211 19.125 12.3749 19.881 12.3749 20.8125C12.3749 21.744 11.6211 22.5 10.6874 22.5C9.75363 22.5 8.99988 21.744 8.99988 20.8125C8.99988 19.881 9.75363 19.125 10.6874 19.125ZM6.18738 14.625H12.9374C13.5561 14.625 14.0624 14.121 14.0624 13.5C14.0624 12.879 13.5561 12.375 12.9374 12.375H6.18738C5.56863 12.375 5.06238 12.879 5.06238 13.5C5.06238 14.121 5.56863 14.625 6.18738 14.625ZM3.93738 10.6875H10.6874C11.3061 10.6875 11.8124 10.1835 11.8124 9.5625C11.8124 8.9415 11.3061 8.4375 10.6874 8.4375H3.93738C3.31863 8.4375 2.81238 8.9415 2.81238 9.5625C2.81238 10.1835 3.31863 10.6875 3.93738 10.6875ZM1.12488 6.75H7.87488C8.49363 6.75 8.99988 6.246 8.99988 5.625C8.99988 5.004 8.49363 4.5 7.87488 4.5H1.12488C0.506128 4.5 -0.00012207 5.004 -0.00012207 5.625C-0.00012207 6.246 0.506128 6.75 1.12488 6.75Z" fill="#E10914"/></svg>