<svg enable-background="new 0 0 32 32" height="32" viewBox="0 0 32 32" width="32" xmlns="http://www.w3.org/2000/svg">
    <path d="m16 6.001v2.999c0 .369.203.708.527.883.147.078.311.118.473.118.193 0 .387-.057.555-.168l6-4.001c.278-.186.445-.497.445-.831 0-.335-.167-.646-.445-.832l-6-4c-.307-.206-.703-.225-1.025-.05-.327.174-.53.513-.53.882v3c-6.617 0-12 5.383-12 12 0 .552.448 1 1 1s1-.448 1-1c0-5.515 4.486-10 10-10zm2-3.132 3.197 2.132-3.197 2.131zm9 12.132c-.552 0-1 .447-1 1 0 5.516-4.486 10-10 10v-3.001c0-.369-.203-.707-.528-.882s-.72-.155-1.026.05l-6 4c-.279.186-.446.498-.446.832s.167.646.445.832l6 4c.168.111.361.168.555.168.162 0 .324-.039.472-.118.325-.174.528-.513.528-.882v-3c6.617 0 12-5.383 12-11.999 0-.553-.448-1-1-1zm-13 14.13-3.197-2.131 3.197-2.131z"
          fill="#222"/>
</svg>