<svg xmlns="http://www.w3.org/2000/svg" width="140" height="140" viewBox="0 0 140 140" fill="none"><path d="M140 70C140 76.0312 133.905 81.1641 132.416 86.7333C130.876 92.4821 133.545 99.9762 130.632 105.006C127.681 110.114 119.828 111.538 115.683 115.683C111.538 119.828 110.114 127.681 105.006 130.632C99.9762 133.545 92.4821 130.889 86.7333 132.416C81.1769 133.905 76.0312 140 70 140C63.9688 140 58.8359 133.905 53.2667 132.416C47.5179 130.876 40.0238 133.545 34.9936 130.632C29.8863 127.681 28.462 119.828 24.3171 115.683C20.1723 111.538 12.319 110.114 9.36755 105.006C6.45463 99.9762 9.11091 92.4821 7.58387 86.7333C6.09532 81.1769 0 76.0312 0 70C0 63.9688 6.09532 58.8359 7.58387 53.2667C9.12374 47.5179 6.45463 40.0238 9.36755 34.9936C12.319 29.8863 20.1723 28.462 24.3171 24.3171C28.462 20.1723 29.8863 12.319 34.9936 9.36755C40.0238 6.45463 47.5179 9.11091 53.2667 7.58387C58.8231 6.09532 63.9688 0 70 0C76.0312 0 81.1641 6.09532 86.7333 7.58387C92.4821 9.12374 99.9762 6.45463 105.006 9.36755C110.114 12.319 111.538 20.1723 115.683 24.3171C119.828 28.462 127.681 29.8863 130.632 34.9936C133.545 40.0238 130.889 47.5179 132.416 53.2667C133.905 58.8231 140 63.9688 140 70Z" fill="#E10914"></path></svg>